<?xml version="1.0" encoding="UTF-8"?>
<svg width="1200pt" height="600pt" version="1.1" viewBox="0 0 1200 1200" xmlns="http://www.w3.org/2000/svg">
 <g>
  <rect width="1200" height="1200" fill="#fff"/>
  <path d="m935.54 594.71c-1.5117-2.2656-3.7773-6.0469-3.7773-9.0703 0.75391 0 1.5117-0.75391 1.5117-2.2656-0.75391 0-1.5117 0-2.2656 0.75391-1.5117 6.0469-12.09-1.5117-6.0469-7.5586l0.75391 0.75391c0.75391-1.5117 0-2.2656-0.75391-3.0234-2.2656 3.0234-4.5352 0-3.7773-3.0234 0.75391-3.0234 8.3125-5.2891 3.0234-9.0703 0-3.0234 0-6.0469 0.75391-8.3125-2.2656-1.5117-3.7773-3.7773-3.7773-6.8008 2.2656-2.2656 6.0469-4.5352 4.5352-7.5586 2.2656 0 3.0234-1.5117 3.0234-3.7773-1.5117 0-3.0234 0.75391-4.5352 0.75391 0.75391-1.5117 0.75391-3.0234 1.5117-4.5352l-0.003906 0.011719c-0.75391 1.5117-7.5586 9.8242-6.0469 3.0234-0.75391-0.75391-1.5117-1.5117-2.2656-1.5117-3.0234 4.5352-3.7773 8.3125-9.8242 8.3125-8.3125 0-14.359-4.5352-20.402-9.0703-2.2656-1.5117 1.5117-2.2656-3.0234-1.5117-1.5117 0-3.0234 3.0234-5.2891 3.0234s-7.5586-4.5352-9.0703-6.0469c-0.75391-0.75391-2.2656-1.5117-3.0234-2.2656 0-0.75391 0-3.7773 0.75391-3.0234-3.7773-4.5352-2.2656 2.2656-9.0703 1.5117-6.8008-0.75391 6.0469-7.5586-0.75391-6.0469-3.0234 0.75391-4.5352 4.5352-8.3125 3.7773-2.2656-0.75391-3.0234-3.7773-5.2891-5.2891-6.0469-5.2891-12.848-3.7773-20.402-6.8008-3.0234-0.75391-5.2891-3.0234-8.3125-3.7773-4.5352-0.75391-8.3125 0.75391-12.848 0.75391-8.3125-0.75391-17.383-3.7773-25.695-6.0469-0.75391 8.3125-16.625 10.578-18.895 2.2656-7.5586 1.5117-12.09-1.5117-18.137-4.5352-5.2891-2.2656-11.336-0.75391-16.625-3.0234 0.75391 2.2656 2.2656 3.7773 3.0234 5.2891 0-0.75391 0.75391-1.5117 0.75391-1.5117 2.2656-0.75391 4.5352 0 6.0469 1.5117-0.75391 0.75391-1.5117 0.75391-2.2656 0-1.5117 6.0469 13.602 3.7773 8.3125 9.0703-4.5352-0.75391-6.8008 4.5352-10.578 3.7773v-6.8008c-2.2656 0.75391-6.0469 1.5117-8.3125 0-4.5352-3.7773 0-7.5586-0.75391-12.09l-2.2656-0.75391c0 0.75391 0.75391 2.2656 0.75391 3.0234-3.7773 3.7773-8.3125 9.0703-14.359 6.8008-3.0234-1.5117-8.3125-8.3125-3.0234-9.0703l0.75391-0.75391c-5.2891-1.5117-1.5117 1.5117-3.7773 3.0234-3.7773 1.5117-9.0703 1.5117-13.602 0.75391-5.2891 0-8.3125-1.5117-12.848-3.0234-2.2656-0.75391-4.5352-3.0234-6.8008-3.0234-2.2656 0-3.7773 3.0234-6.0469 3.7773-3.7773 0.75391-11.336-0.75391-14.359-2.2656-3.0234-0.75391-4.5352-3.0234-7.5586-3.7773-3.0234-0.75391-7.5586-0.75391-10.578-0.75391-4.5352-0.75391-9.0703-3.0234-13.602-3.0234-2.2656 0-14.359 2.2656-16.625 3.7773-3.0234 1.5117-2.2656 5.2891-6.0469 6.8008-4.5352 1.5117-11.336-0.75391-15.871-2.2656-5.2891-1.5117-9.8242-3.7773-15.871-5.2891-6.0469-1.5117-10.578 0-16.625 0s-10.578-2.2656-16.625-3.7773c-6.8008-1.5117-12.848-0.75391-19.648 1.5117-12.848 3.7773-21.914 9.8242-35.52 4.5352-4.5352-1.5117-8.3125-5.2891-13.602-6.0469-6.0469-0.75391-11.336 2.2656-17.383 2.2656-5.2891 0-9.8242-3.0234-15.871-2.2656-6.0469 0.75391-11.336 3.7773-17.383 3.0234-4.5352 0-8.3125-3.0234-12.09-3.0234-6.0469-0.75391-10.578 1.5117-16.625-0.75391-11.336-3.7773-18.895-8.3125-30.984-9.8242-9.8242-0.75391-23.426-1.5117-32.496 3.0234-11.336 5.2891-13.602 12.848-9.8242 22.672 2.2656 4.5352 4.5352 10.578 1.5117 15.113-2.2656 3.7773-9.8242 7.5586-13.602 9.8242-4.5352 2.2656-9.0703 4.5352-13.602 6.0469-4.5352 1.5117-12.09 1.5117-15.871 4.5352-6.8008 4.5352 3.7773 15.113 6.8008 21.16 2.2656 4.5352 3.7773 7.5586 8.3125 9.0703 3.7773 1.5117 9.0703 0 12.09 3.0234 3.0234 2.2656 1.5117 6.0469 3.0234 9.0703 0.75391 2.2656 3.0234 4.5352 4.5352 7.5586 1.5117 3.0234 0.75391 5.2891 1.5117 7.5586 0.75391 4.5352 2.2656 4.5352 4.5352 7.5586 6.8008 7.5586-2.2656 15.871-9.8242 21.16 2.2656 3.7773 6.0469 10.578-0.75391 12.09 0 5.2891 3.0234 10.578 0 15.113-3.0234 4.5352-7.5586 6.0469-3.7773 12.09l0.75391-0.75391-0.003906-0.011719 0.75391-0.75391c4.5352 3.0234 4.5352 9.0703-0.75391 6.0469-3.0234 3.7773 0 3.7773-1.5117 6.8008-0.75391 2.2656-2.2656 3.7773-4.5352 6.0469 5.2891 0 20.402 3.0234 13.602 11.336l0.75391 0.75391c1.5117-0.75391 2.2656-2.2656 3.0234-3.7773h0.75391l-0.75391 2.2656c0.75391 0.75391 1.5117 1.5117 0.75391 2.2656-2.2656 0-4.5352 0.75391-6.8008 0v-0.75391c0.75391 0 1.5117 0 2.2656-0.75391-11.336 2.2656-15.871 6.0469-15.113 17.383v6.0469c1.5117 1.5117 3.7773-1.5117 5.2891 0 2.2656 1.5117 3.7773 5.2891 1.5117 6.0469l-0.75391 0.75391c0 0.75391 0.75391 1.5117 0.75391 2.2656h1.5117c0-0.75391 0-0.75391 0.75391-1.5117 0.75391 0.75391 0.75391 1.5117 0.75391 2.2656 4.543-2.2695-1.5039-5.2891-0.74609-9.0703 1.5117-6.8008 7.5586-5.2891 12.09-3.0234 6.0469 3.0234 12.848 6.0469 20.402 6.0469 2.2656 0 4.5352 0.75391 6.8008-1.5117 3.0234-2.2656 2.2656-3.7773 3.7773-6.8008 0.75391 2.2656 1.5117 3.0234 3.7773 3.0234l0.75391-1.5117-2.2617-1.5117c6.0469-11.336 24.184 1.5117 31.738 1.5117-0.75391-1.5117-1.5117-3.0234-2.2656-4.5352 10.578-0.75391 7.5586 7.5586 15.113 12.09 3.7773 2.2656 16.625 11.336 19.648 5.2891-1.5117-1.5117-3.0234-2.2656-5.2891-3.0234 0.75391-3.7773 7.5586-2.2656 9.8242-5.2891-1.5117-3.0234-5.2891-5.2891-9.0703-4.5352 0-9.8242 6.0469 0 10.578-1.5117-2.2656 8.3125 3.7773 6.8008 9.0703 5.2891 2.2656 3.0234 4.5352 3.0234 8.3125 3.0234 0-2.2656 0.75391-3.7773 2.2656-4.5352 6.0469 3.7773 9.0703 2.2656 15.113-0.75391 5.2891-2.2656 15.113-3.7773 14.359-11.336-1.5117 0.75391-12.848 9.0703-9.0703 0 5.2891 3.0234 3.0234-0.75391 3.0234-4.5352 3.7773 3.0234 9.8242-3.7773 12.848-6.0469 0.75391 1.5117 1.5117 2.2656 1.5117 3.7773 1.5117 0 2.2656 0 3.0234 0.75391v5.2891l-2.2617 1.5195c0 2.2656 0.75391 3.7773 3.0234 3.7773 7.5586-13.602 17.383-3.7773 27.207 1.5117 9.0703 4.5352 8.3125 0.75391 15.871-3.0234 4.5352-2.2656 12.848-2.2656 14.359 3.7773l-2.2656 0.75391 0.75391 3.0234c5.2891-0.75391 10.578-6.8008 14.359 0.75391 14.359-4.5352 32.496-15.871 47.609-12.09 8.3125 1.5117 8.3125 9.0703 14.359 12.848 1.5117 0.75391 4.5352 0.75391 6.8008 1.5117 3.7773 1.5117 7.5586 5.2891 10.578 7.5586 7.5586-5.2891 12.09-14.359 21.16-16.625 5.2891-1.5117 4.5352 0.75391 7.5586 3.0234 5.2891 3.7773 6.8008 6.0469 10.578 12.09 7.5586-7.5586 11.336 4.5352 18.137 4.5352 0.75391-1.5117 0-3.0234-1.5117-3.7773l3.7773-0.75391c0 2.2656 1.5117 3.7773 3.0234 4.5352 1.5117-2.2656 0.75391-3.7773-0.75391-6.8008 4.5352-3.0234 7.5586-7.5586 13.602-6.0469 2.2656 0.75391 9.8242 4.5352 10.578 6.8008-3.0234 1.5117-4.5352 1.5117-7.5586 1.5117s-4.5352-2.2656-8.3125-1.5117c0.75391 10.578 10.578 3.0234 15.871 3.0234 7.5586 0.75391 5.2891 4.5352 12.848-0.75391 4.5352-3.7773 8.3125-3.0234 13.602-5.2891 3.7773-1.5117 7.5586-6.8008 12.09-6.8008 5.2891 0 9.0703 6.8008 14.359 5.2891 6.0469-2.2656 6.0469-9.0703 12.848-10.578 7.5586-1.5117 6.8008 3.0234 12.09 4.5352 5.2891 1.5117 13.602-0.75391 18.895-2.2656 15.871-2.2656 24.938-16.625 40.809-16.625 3.7773-7.5586-3.7773-18.895 7.5586-21.16 0.75391 0 2.2656 3.0234 4.5352 1.5117 2.2656-0.75391 2.2656-3.0234 3.0234-5.2891 0.75391-1.5117-0.75391-3.7773 0-5.2891s2.2656-2.2656 3.0234-3.0234c0.75391-1.5117 1.5117-3.7773 1.5117-6.0469 1.5117-6.0469 3.0234-12.848 6.8008-18.137 3.0234-3.7773 6.8008-4.5352 9.8242-7.5586 3.0234-3.0234 3.0234-10.578 9.8242-10.578 2.2656 0 8.3125 3.0234 9.8242 5.2891 0 0 0.75391 0 0.75391-0.75391-1.5117-2.2656-2.2656-4.5352 0-6.8008 5.293-1.5234 12.848-3.7891 15.871-3.7891 3.7773 0.75391 9.8242 6.8008 12.09-1.5117-2.2656-2.2656-3.7773-6.0469-4.5352-9.0703 6.0469-6.8008 11.336 2.2656 11.336 7.5586 4.5352-2.2656 0.75391-5.2891 3.0234-8.3125 1.5117 0.75391 3.0234 1.5117 3.7773 2.2656l1.5117-2.2656c-1.5078 0-3.0195-0.75391-4.5312-1.5117z" fill="#f4f4f2"/>
 </g>
</svg>
