<?xml version="1.0" encoding="UTF-8"?>
<svg width="1200pt" height="1200pt" version="1.1" viewBox="0 0 1200 1200" xmlns="http://www.w3.org/2000/svg">
 <path d="m1123.6 564.66-106.13-265.06c-3.7266-9.2109-10.945-16.574-20.078-20.484-9.1328-3.9141-19.445-4.0547-28.684-0.39844l-81.922 32.793c-8.2148 3.3086-14.996 9.4219-19.133 17.254-4.1367 7.832-5.3672 16.879-3.4688 25.531-17.07 9.1914-36.285 13.648-55.656 12.914l-171.73-18.336c-37.035-4.0859-74.254 5.8828-104.29 27.938l-141.99-6.2773c-19.25-1.3516-37.898-7.2578-54.422-17.223 1.5898-8.5391 0.17578-17.367-3.9961-24.98-4.1758-7.6172-10.855-13.559-18.906-16.812l-81.91-32.805-0.003907 0.003906c-9.2383-3.6562-19.543-3.5117-28.676 0.39844-9.1328 3.9062-16.352 11.27-20.086 20.477l-106.14 265.07c-3.6797 9.2344-3.5469 19.555 0.36719 28.691 3.918 9.1367 11.293 16.352 20.516 20.062l81.93 32.812c7.5117 2.9805 15.785 3.457 23.586 1.3555 7.8047-2.1016 14.719-6.668 19.715-13.02l66.934 45.328c-8.4727 11.496-12.441 25.695-11.16 39.918s7.7266 27.48 18.117 37.277c10.387 9.7969 24.004 15.453 38.277 15.895 0.76953 16.461 8.4961 31.816 21.258 42.238 12.762 10.426 29.352 14.93 45.633 12.398 2.9102 13.5 10.543 25.52 21.531 33.891 10.988 8.3711 24.602 12.543 38.395 11.762 2.1211 15 9.9844 28.594 21.93 37.914 11.941 9.3164 27.039 13.641 42.105 12.051 15.066-1.5859 28.93-8.957 38.668-20.562l12.941-15.762 26.598 20.617h0.003906c17.574 13.395 40.871 16.633 61.434 8.543 20.562-8.0898 35.406-26.332 39.145-48.113 17.91 4.3984 36.848 0.72266 51.812-10.055 14.965-10.777 24.449-27.574 25.953-45.953 16.594 2.5508 33.523-1.5195 47.141-11.332 13.617-9.8164 22.832-24.59 25.656-41.137 16.258 3.6719 33.301 1.0273 47.68-7.3984s25.016-22.004 29.758-37.98c4.7422-15.977 3.2344-33.16-4.2227-48.062l48.094-33.715c4.7227 7.0742 11.727 12.316 19.848 14.848 8.1211 2.5312 16.867 2.1953 24.77-0.94531l81.941-32.812c9.1992-3.7383 16.555-10.957 20.461-20.086 3.9102-9.1289 4.0586-19.43 0.41406-28.668zm-490.82-178.51 171.75 18.336c25.266 1.7539 50.523-3.4883 73-15.152l83.27 207.95-58.598 41.078c-36.23-27.863-85.418-65.637-106.68-81.852l0.003906-0.003906c-10.734-8.1875-24.309-11.715-37.668-9.7891-74.672 9.5117-135.11-35.055-157.82-54.738h0.003907c-6.6602-5.6289-14.934-9-23.629-9.6211-8.6992-0.62109-17.367 1.5352-24.758 6.1602l-87.039 54.766v0.003907c-7.2656 4.375-16.254 4.7695-23.871 1.0391-7.6172-3.7305-12.82-11.07-13.82-19.492-0.99609-8.4219 2.3477-16.773 8.8789-22.18l114.18-92.238c23.246-18.836 53.066-27.574 82.801-24.27zm-439.66 225.25-81.93-32.805 106.15-265.07 81.922 32.805c-0.085937 0.21875-106.12 265.08-106.12 265.08zm122.07 105.41h0.003907c-0.55469-5.4961 1.1133-10.988 4.6328-15.246l41.73-50.84h-0.003906c3.5195-4.2422 8.5703-6.9258 14.055-7.4648 5.4844-0.53906 10.961 1.1133 15.234 4.5898 4.9648 4.4961 7.6719 10.969 7.3789 17.66-0.29297 6.6914-3.5508 12.906-8.8906 16.949l-37.406 45.57c-3.5508 4.1641-8.5898 6.7734-14.039 7.2695-5.4453 0.49609-10.875-1.1641-15.113-4.6172-4.2422-3.457-6.9648-8.4375-7.5781-13.871zm64.27 69.59 0.003906-0.003906c-4.9688-4.4961-7.6719-10.973-7.3828-17.668 0.29297-6.6914 3.5547-12.91 8.8945-16.957l37.398-45.555v0.003906c4.7266-5.7383 12.152-8.5156 19.48-7.2891 7.332 1.2227 13.449 6.2656 16.055 13.227 2.6055 6.9609 1.2969 14.781-3.4297 20.52l-41.719 50.828c-3.5078 4.2578-8.5625 6.9531-14.051 7.4961-5.4922 0.53906-10.973-1.1133-15.246-4.6055zm65.57 44.805h0.003906c-4.2461-3.5195-6.9297-8.5664-7.4648-14.055-0.53906-5.4844 1.1094-10.961 4.5898-15.234l41.73-50.84c4.7188-5.7383 12.137-8.5273 19.469-7.3164 7.332 1.2109 13.461 6.2422 16.082 13.195 2.6172 6.957 1.3281 14.777-3.3789 20.527l-41.738 50.848h-0.003906c-3.5156 4.2461-8.5664 6.9297-14.051 7.4648-5.4844 0.53906-10.961-1.1094-15.234-4.5898zm76.117 55.188h0.003906c-5.4648 0.45703-10.891-1.2461-15.113-4.7422-4.2227-3.5-6.9023-8.5156-7.4648-13.969-0.56641-5.4531 1.0352-10.914 4.4492-15.199l41.738-50.84c3.4961-4.2812 8.5508-6.9961 14.051-7.543s10.992 1.1133 15.266 4.6211c4.2734 3.5078 6.9727 8.5703 7.5078 14.074 0.53125 5.5-1.1445 10.988-4.6602 15.25l-41.73 50.84c-3.4922 4.2734-8.5508 6.9766-14.043 7.5078zm371.72-174.42h0.003906c-4.6016 6.2266-11.527 10.32-19.199 11.359-7.6719 1.0352-15.438-1.0781-21.523-5.8555l-20.637-17.23c-0.33203-0.26563-0.64062-0.51953-0.96875-0.76953-0.39062-0.18359-0.5625-0.625-0.94141-0.78516l-50.422-42.18v-0.003906c-5.1406-4.2969-12.18-5.5273-18.473-3.2266-6.2891 2.3008-10.875 7.7852-12.027 14.383-1.1562 6.6016 1.3008 13.312 6.4414 17.609 0.625 1.0938 51.551 42.758 52.273 43.688v0.003907c7.3281 5.4336 11.203 14.363 10.16 23.426-1.0391 9.0625-6.8359 16.883-15.207 20.512-8.3672 3.6289-18.039 2.5195-25.367-2.9141-12.523-9.8477-53.211-41.484-64.27-51.699-5.1094-4.1992-12.055-5.3945-18.273-3.1484-6.2227 2.2461-10.797 7.6055-12.043 14.102-1.25 6.4961 1.0195 13.168 5.9648 17.559l47.625 40.695c6.6523 5.9023 9.7578 14.844 8.1914 23.602-1.5625 8.7578-7.5703 16.07-15.855 19.309-8.2852 3.2383-17.66 1.9336-24.746-3.4453l-42.938-33.91c-0.71484-0.42969-1.4609-0.80469-2.2305-1.1289-4.1719-2.4531-9.1406-3.1719-13.84-2-4.6953 1.1719-8.7461 4.1406-11.273 8.2656-2.5312 4.1289-3.3398 9.0859-2.2539 13.801 0.69141 9.8203 24.809 23.891 31.023 29.984 5.2422 6.5234 6.9258 15.215 4.5039 23.223-2.418 8.0117-8.6328 14.316-16.609 16.848-7.9766 2.5352-16.688 0.96875-23.285-4.1758l-25.742-19.953-0.003906-0.003906c11.555-11.098 18.074-26.43 18.055-42.449-0.023437-16.02-6.582-31.336-18.164-42.402-11.582-11.066-27.18-16.926-43.184-16.219-2.0703-15.516-10.289-29.547-22.812-38.934-12.523-9.3906-28.293-13.352-43.766-10.992-2.7617-12.711-9.7344-24.121-19.789-32.375-10.059-8.25-22.609-12.863-35.613-13.09-0.82031-15.711-7.9414-30.426-19.75-40.816s-27.312-15.578-42.996-14.391c-15.688 1.1875-30.23 8.6484-40.34 20.699l-19.457 23.703-74.977-50.773 84.609-211.31c20.23 11.551 42.883 18.211 66.148 19.438l99.008 4.375-75.617 61.09c-14.742 11.98-23.258 30-23.156 48.996 0.097657 19 8.8047 36.926 23.672 48.754 10.242 7.6914 22.547 12.16 35.34 12.836s25.5-2.4688 36.5-9.0352l86.816-54.641c1.2539-0.87891 2.9297-0.85156 4.1562 0.0625 26.375 22.871 97.438 74.836 187.07 63.484 3.5039-0.57031 7.0898 0.26563 9.9805 2.3242 22.852 17.422 77.766 59.594 113.82 87.324h-0.003906c5.8438 4.3203 9.7734 10.742 10.965 17.91 1.1953 7.168-0.44531 14.516-4.5703 20.496zm114-100.56s-105.95-264.45-106.14-265.08l81.922-32.805 106.13 265.08z" fill="#fff"/>
</svg>
